<svg xmlns="http://www.w3.org/2000/svg" version="1.1" xmlns:xlink="http://www.w3.org/1999/xlink" xmlns:svgjs="http://svgjs.com/svgjs" width="600" height="500" preserveAspectRatio="none" viewBox="0 0 600 500"><g mask="url(&quot;#SvgjsMask1544&quot;)" fill="none"><rect width="600" height="500" x="0" y="0" fill="url(#SvgjsLinearGradient1545)"></rect><path d="M53.5 -66.61L126.25 -24.61L126.25 59.39L53.5 101.39L-19.25 59.39L-19.25 -24.61zM271.74 59.39L344.49 101.39L344.49 185.39L271.74 227.39L199 185.39L199 101.39zM199 185.39L271.74 227.39L271.74 311.39L199 353.39L126.25 311.39L126.25 227.39zM199 437.39L271.74 479.39L271.74 563.39L199 605.39L126.25 563.39L126.25 479.39zM344.49 185.39L417.24 227.39L417.24 311.39L344.49 353.39L271.74 311.39L271.74 227.39zM489.99 437.39L562.74 479.39L562.74 563.39L489.99 605.39L417.24 563.39L417.24 479.39zM635.49 -66.61L708.23 -24.61L708.23 59.39L635.49 101.39L562.74 59.39L562.74 -24.61zM708.23 59.39L780.98 101.39L780.98 185.39L708.23 227.39L635.49 185.39L635.49 101.39zM708.23 311.39L780.98 353.39L780.98 437.39L708.23 479.39L635.49 437.39L635.49 353.39z" stroke="#03305d" stroke-width="2"></path><path d="M45.1 -66.61 a8.4 8.4 0 1 0 16.8 0 a8.4 8.4 0 1 0 -16.8 0zM117.85 -24.61 a8.4 8.4 0 1 0 16.8 0 a8.4 8.4 0 1 0 -16.8 0zM117.85 59.39 a8.4 8.4 0 1 0 16.8 0 a8.4 8.4 0 1 0 -16.8 0zM45.1 101.39 a8.4 8.4 0 1 0 16.8 0 a8.4 8.4 0 1 0 -16.8 0zM-27.65 59.39 a8.4 8.4 0 1 0 16.8 0 a8.4 8.4 0 1 0 -16.8 0zM-27.65 -24.61 a8.4 8.4 0 1 0 16.8 0 a8.4 8.4 0 1 0 -16.8 0zM263.34 59.39 a8.4 8.4 0 1 0 16.8 0 a8.4 8.4 0 1 0 -16.8 0zM336.09 101.39 a8.4 8.4 0 1 0 16.8 0 a8.4 8.4 0 1 0 -16.8 0zM336.09 185.39 a8.4 8.4 0 1 0 16.8 0 a8.4 8.4 0 1 0 -16.8 0zM263.34 227.39 a8.4 8.4 0 1 0 16.8 0 a8.4 8.4 0 1 0 -16.8 0zM190.6 185.39 a8.4 8.4 0 1 0 16.8 0 a8.4 8.4 0 1 0 -16.8 0zM190.6 101.39 a8.4 8.4 0 1 0 16.8 0 a8.4 8.4 0 1 0 -16.8 0zM263.34 311.39 a8.4 8.4 0 1 0 16.8 0 a8.4 8.4 0 1 0 -16.8 0zM190.6 353.39 a8.4 8.4 0 1 0 16.8 0 a8.4 8.4 0 1 0 -16.8 0zM117.85 311.39 a8.4 8.4 0 1 0 16.8 0 a8.4 8.4 0 1 0 -16.8 0zM117.85 227.39 a8.4 8.4 0 1 0 16.8 0 a8.4 8.4 0 1 0 -16.8 0zM190.6 437.39 a8.4 8.4 0 1 0 16.8 0 a8.4 8.4 0 1 0 -16.8 0zM263.34 479.39 a8.4 8.4 0 1 0 16.8 0 a8.4 8.4 0 1 0 -16.8 0zM263.34 563.39 a8.4 8.4 0 1 0 16.8 0 a8.4 8.4 0 1 0 -16.8 0zM190.6 605.39 a8.4 8.4 0 1 0 16.8 0 a8.4 8.4 0 1 0 -16.8 0zM117.85 563.39 a8.4 8.4 0 1 0 16.8 0 a8.4 8.4 0 1 0 -16.8 0zM117.85 479.39 a8.4 8.4 0 1 0 16.8 0 a8.4 8.4 0 1 0 -16.8 0zM408.84 227.39 a8.4 8.4 0 1 0 16.8 0 a8.4 8.4 0 1 0 -16.8 0zM408.84 311.39 a8.4 8.4 0 1 0 16.8 0 a8.4 8.4 0 1 0 -16.8 0zM336.09 353.39 a8.4 8.4 0 1 0 16.8 0 a8.4 8.4 0 1 0 -16.8 0zM481.59 437.39 a8.4 8.4 0 1 0 16.8 0 a8.4 8.4 0 1 0 -16.8 0zM554.34 479.39 a8.4 8.4 0 1 0 16.8 0 a8.4 8.4 0 1 0 -16.8 0zM554.34 563.39 a8.4 8.4 0 1 0 16.8 0 a8.4 8.4 0 1 0 -16.8 0zM481.59 605.39 a8.4 8.4 0 1 0 16.8 0 a8.4 8.4 0 1 0 -16.8 0zM408.84 563.39 a8.4 8.4 0 1 0 16.8 0 a8.4 8.4 0 1 0 -16.8 0zM408.84 479.39 a8.4 8.4 0 1 0 16.8 0 a8.4 8.4 0 1 0 -16.8 0zM627.09 -66.61 a8.4 8.4 0 1 0 16.8 0 a8.4 8.4 0 1 0 -16.8 0zM699.83 -24.61 a8.4 8.4 0 1 0 16.8 0 a8.4 8.4 0 1 0 -16.8 0zM699.83 59.39 a8.4 8.4 0 1 0 16.8 0 a8.4 8.4 0 1 0 -16.8 0zM627.09 101.39 a8.4 8.4 0 1 0 16.8 0 a8.4 8.4 0 1 0 -16.8 0zM554.34 59.39 a8.4 8.4 0 1 0 16.8 0 a8.4 8.4 0 1 0 -16.8 0zM554.34 -24.61 a8.4 8.4 0 1 0 16.8 0 a8.4 8.4 0 1 0 -16.8 0zM772.58 101.39 a8.4 8.4 0 1 0 16.8 0 a8.4 8.4 0 1 0 -16.8 0zM772.58 185.39 a8.4 8.4 0 1 0 16.8 0 a8.4 8.4 0 1 0 -16.8 0zM699.83 227.39 a8.4 8.4 0 1 0 16.8 0 a8.4 8.4 0 1 0 -16.8 0zM627.09 185.39 a8.4 8.4 0 1 0 16.8 0 a8.4 8.4 0 1 0 -16.8 0zM699.83 311.39 a8.4 8.4 0 1 0 16.8 0 a8.4 8.4 0 1 0 -16.8 0zM772.58 353.39 a8.4 8.4 0 1 0 16.8 0 a8.4 8.4 0 1 0 -16.8 0zM772.58 437.39 a8.4 8.4 0 1 0 16.8 0 a8.4 8.4 0 1 0 -16.8 0zM699.83 479.39 a8.4 8.4 0 1 0 16.8 0 a8.4 8.4 0 1 0 -16.8 0zM627.09 437.39 a8.4 8.4 0 1 0 16.8 0 a8.4 8.4 0 1 0 -16.8 0zM627.09 353.39 a8.4 8.4 0 1 0 16.8 0 a8.4 8.4 0 1 0 -16.8 0z" fill="#03305d"></path><path d="M33.24 -70.91L94.73 -35.41L94.73 35.59L33.24 71.09L-28.25 35.59L-28.25 -35.41zM94.73 35.59L156.22 71.09L156.22 142.09L94.73 177.59L33.24 142.09L33.24 71.09zM94.73 248.59L156.22 284.09L156.22 355.09L94.73 390.59L33.24 355.09L33.24 284.09zM94.73 461.59L156.22 497.09L156.22 568.09L94.73 603.59L33.24 568.09L33.24 497.09zM156.22 -70.91L217.71 -35.41L217.71 35.59L156.22 71.09L94.73 35.59L94.73 -35.41zM217.71 35.59L279.2 71.09L279.2 142.09L217.71 177.59L156.22 142.09L156.22 71.09zM217.71 248.59L279.2 284.09L279.2 355.09L217.71 390.59L156.22 355.09L156.22 284.09zM217.71 461.59L279.2 497.09L279.2 568.09L217.71 603.59L156.22 568.09L156.22 497.09zM279.2 355.09L340.69 390.59L340.69 461.59L279.2 497.09L217.71 461.59L217.71 390.59zM463.67 35.59L525.16 71.09L525.16 142.09L463.67 177.59L402.18 142.09L402.18 71.09zM463.67 248.59L525.16 284.09L525.16 355.09L463.67 390.59L402.18 355.09L402.18 284.09zM463.67 461.59L525.16 497.09L525.16 568.09L463.67 603.59L402.18 568.09L402.18 497.09zM525.16 -70.91L586.65 -35.41L586.65 35.59L525.16 71.09L463.67 35.59L463.67 -35.41zM586.65 248.59L648.14 284.09L648.14 355.09L586.65 390.59L525.16 355.09L525.16 284.09zM586.65 461.59L648.14 497.09L648.14 568.09L586.65 603.59L525.16 568.09L525.16 497.09z" stroke="rgba(6, 80, 156, 0.93)" stroke-width="2"></path></g><defs><mask id="SvgjsMask1544"><rect width="600" height="500" fill="#ffffff"></rect></mask><linearGradient x1="50%" y1="0%" x2="50%" y2="100%" gradientUnits="userSpaceOnUse" id="SvgjsLinearGradient1545"><stop stop-color="#0e2a47" offset="0"></stop><stop stop-color="rgba(19, 51, 91, 1)" offset="1"></stop></linearGradient></defs></svg>